<svg width="32" height="32" viewBox="0 0 32 32" fill="none" xmlns="http://www.w3.org/2000/svg">
<circle cx="16" cy="16" r="16" fill="#1749B3"/>
<g clip-path="url(#clip0_224_1431)">
<path d="M11.3327 22.6663C11.1559 22.6663 10.9863 22.5961 10.8613 22.4711C10.7363 22.3461 10.666 22.1765 10.666 21.9997V9.99967C10.666 9.82286 10.7363 9.65329 10.8613 9.52827C10.9863 9.40325 11.1559 9.33301 11.3327 9.33301H20.666C20.8428 9.33301 21.0124 9.40325 21.1374 9.52827C21.2624 9.65329 21.3327 9.82286 21.3327 9.99967V21.9997C21.3327 22.1765 21.2624 22.3461 21.1374 22.4711C21.0124 22.5961 20.8428 22.6663 20.666 22.6663H11.3327ZM17.9993 18.6663L21.3327 15.9997L17.9993 13.333V15.333H13.9993V16.6663H17.9993V18.6663Z" fill="white"/>
</g>
<defs>
<clipPath id="clip0_224_1431">
<rect width="16" height="16" fill="white" transform="translate(8 8)"/>
</clipPath>
</defs>
</svg>
