<svg width="32" height="32" viewBox="0 0 32 32" fill="none" xmlns="http://www.w3.org/2000/svg">
<circle cx="16" cy="16" r="16" fill="#F7F7F7"/>
<g clip-path="url(#clip0_224_1424)">
<path d="M10.6666 22.667C10.6666 21.2525 11.2285 19.896 12.2287 18.8958C13.2289 17.8956 14.5855 17.3337 16 17.3337C17.4144 17.3337 18.771 17.8956 19.7712 18.8958C20.7714 19.896 21.3333 21.2525 21.3333 22.667H20C20 21.6061 19.5785 20.5887 18.8284 19.8386C18.0782 19.0884 17.0608 18.667 16 18.667C14.9391 18.667 13.9217 19.0884 13.1715 19.8386C12.4214 20.5887 12 21.6061 12 22.667H10.6666ZM16 16.667C13.79 16.667 12 14.877 12 12.667C12 10.457 13.79 8.66699 16 8.66699C18.21 8.66699 20 10.457 20 12.667C20 14.877 18.21 16.667 16 16.667ZM16 15.3337C17.4733 15.3337 18.6666 14.1403 18.6666 12.667C18.6666 11.1937 17.4733 10.0003 16 10.0003C14.5266 10.0003 13.3333 11.1937 13.3333 12.667C13.3333 14.1403 14.5266 15.3337 16 15.3337Z" fill="#333333"/>
</g>
<defs>
<clipPath id="clip0_224_1424">
<rect width="16" height="16" fill="white" transform="translate(8 8)"/>
</clipPath>
</defs>
</svg>
